<svg xmlns="http://www.w3.org/2000/svg" width="800" height="200" viewBox="0 0 800 200"><rect width="100%" height="100%" fill="#2563eb"/><path fill="#ffffff" d="M280.825 92.625q0 7.95-2.65 14.6t-7.45 11.45-11.55 7.45-15 2.65h-27.55v-72.3h27.55q8.25 0 15 2.67 6.75 2.68 11.55 7.45 4.8 4.78 7.45 11.43t2.65 14.6m-13.8 0q0-5.95-1.57-10.68-1.58-4.72-4.55-8-2.98-3.27-7.2-5.02-4.23-1.75-9.53-1.75h-14.05v50.9h14.05q5.3 0 9.53-1.75 4.22-1.75 7.2-5.03 2.97-3.27 4.55-8 1.57-4.72 1.57-10.67m33.45 4.6h23.3q0-2.4-.67-4.53-.68-2.12-2.03-3.72t-3.42-2.53q-2.08-.92-4.83-.92-5.35 0-8.42 3.05-3.08 3.05-3.93 8.65m31.5 7.45h-31.75q.3 3.95 1.4 6.82 1.1 2.88 2.9 4.75 1.8 1.88 4.28 2.8 2.47.93 5.47.93t5.18-.7q2.17-.7 3.8-1.55 1.62-.85 2.85-1.55 1.22-.7 2.37-.7 1.55 0 2.3 1.15l3.55 4.5q-2.05 2.4-4.6 4.02-2.55 1.63-5.32 2.6-2.78.98-5.65 1.38-2.88.4-5.58.4-5.35 0-9.95-1.78-4.6-1.77-8-5.25-3.4-3.47-5.35-8.6-1.95-5.12-1.95-11.87 0-5.25 1.7-9.88 1.7-4.62 4.88-8.05 3.17-3.42 7.75-5.42 4.57-2 10.32-2 4.85 0 8.95 1.55t7.05 4.52q2.95 2.98 4.63 7.3 1.67 4.33 1.67 9.88 0 2.8-.6 3.77-.6.98-2.3.98m46.25-21.65-2.8 4.45q-.5.8-1.05 1.12-.55.33-1.4.33-.9 0-1.92-.5-1.03-.5-2.38-1.13-1.35-.62-3.07-1.12-1.73-.5-4.08-.5-3.65 0-5.72 1.55-2.08 1.55-2.08 4.05 0 1.65 1.08 2.77 1.07 1.13 2.85 1.98 1.77.85 4.02 1.52 2.25.68 4.58 1.48 2.32.8 4.57 1.82 2.25 1.03 4.03 2.6 1.77 1.58 2.85 3.78 1.07 2.2 1.07 5.3 0 3.7-1.32 6.82-1.33 3.13-3.93 5.4-2.6 2.28-6.42 3.55-3.83 1.28-8.83 1.28-2.65 0-5.17-.47-2.53-.48-4.85-1.33-2.33-.85-4.3-2-1.98-1.15-3.48-2.5l2.85-4.7q.55-.85 1.3-1.3t1.9-.45 2.18.65q1.02.65 2.37 1.4t3.18 1.4q1.82.65 4.62.65 2.2 0 3.78-.53 1.57-.52 2.6-1.37 1.02-.85 1.5-1.98.47-1.12.47-2.32 0-1.8-1.07-2.95-1.08-1.15-2.85-2-1.78-.85-4.05-1.53-2.28-.67-4.65-1.47-2.38-.8-4.65-1.88-2.28-1.07-4.05-2.72-1.78-1.65-2.85-4.05-1.08-2.4-1.08-5.8 0-3.15 1.25-6t3.68-4.98q2.42-2.12 6.05-3.4 3.62-1.27 8.37-1.27 5.3 0 9.65 1.75t7.25 4.6m9.85-28.55h12.35v42.55h2.3q1.25 0 1.98-.33.72-.32 1.47-1.32l12.75-15.75q.8-1.05 1.78-1.6.97-.55 2.52-.55h11.3l-15.95 19.05q-1.7 2.25-3.7 3.45 1.05.75 1.88 1.75.82 1 1.57 2.15l17.1 24.9h-11.15q-1.45 0-2.5-.48-1.05-.47-1.75-1.72l-13.1-19.45q-.7-1.15-1.45-1.5t-2.25-.35h-2.8v23.5h-12.35zm70.55 75.1q-6.7 0-10.27-3.78-3.58-3.77-3.58-10.42v-28.65h-5.25q-1 0-1.7-.65t-.7-1.95v-4.9l8.25-1.35 2.6-14q.25-1 .95-1.55t1.8-.55h6.4v16.15h13.7v8.8h-13.7v27.8q0 2.4 1.18 3.75 1.17 1.35 3.22 1.35 1.15 0 1.93-.28.77-.27 1.35-.57.57-.3 1.02-.58.45-.27.9-.27.55 0 .9.27.35.28.75.83l3.7 6q-2.7 2.25-6.2 3.4t-7.25 1.15m42.8-52.9q5.7 0 10.38 1.85 4.67 1.85 8 5.25 3.32 3.4 5.12 8.3t1.8 10.95q0 6.1-1.8 11t-5.12 8.35q-3.33 3.45-8 5.3-4.68 1.85-10.38 1.85-5.75 0-10.45-1.85t-8.02-5.3q-3.33-3.45-5.15-8.35-1.83-4.9-1.83-11 0-6.05 1.83-10.95 1.82-4.9 5.15-8.3 3.32-3.4 8.02-5.25t10.45-1.85m0 43.35q6.4 0 9.48-4.3 3.07-4.3 3.07-12.6t-3.07-12.65q-3.08-4.35-9.48-4.35-6.5 0-9.62 4.38-3.13 4.37-3.13 12.62t3.13 12.57q3.12 4.33 9.62 4.33m47.1-27.55v23q2.1 2.55 4.58 3.6 2.47 1.05 5.37 1.05 2.8 0 5.05-1.05t3.83-3.2q1.57-2.15 2.42-5.42.85-3.28.85-7.73 0-4.5-.72-7.63-.73-3.12-2.08-5.07t-3.27-2.85q-1.93-.9-4.38-.9-3.85 0-6.55 1.62-2.7 1.63-5.1 4.58m-1.65-12.75 1 4.75q3.15-3.55 7.15-5.75t9.4-2.2q4.2 0 7.68 1.75 3.47 1.75 6 5.07 2.52 3.33 3.9 8.2 1.37 4.88 1.37 11.18 0 5.75-1.55 10.65t-4.42 8.5q-2.88 3.6-6.95 5.62-4.08 2.03-9.13 2.03-4.3 0-7.35-1.33-3.05-1.32-5.45-3.67v21h-12.35v-68.05h7.55q2.4 0 3.15 2.25"/></svg>