<svg xmlns="http://www.w3.org/2000/svg" width="600" height="400" viewBox="0 0 600 400"><rect width="100%" height="100%" fill="#1E293B"/><path fill="#E2E8F0" d="M185.6 192.925q0 7.63-2.55 14.01-2.54 6.39-7.15 10.99-4.61 4.61-11.09 7.16-6.48 2.54-14.4 2.54h-26.45v-69.41h26.45q7.92 0 14.4 2.57t11.09 7.15q4.61 4.59 7.15 10.97 2.55 6.38 2.55 14.02m-13.25 0q0-5.72-1.51-10.25-1.52-4.54-4.37-7.68-2.86-3.15-6.91-4.83-4.06-1.68-9.15-1.68h-13.49v48.87h13.49q5.09 0 9.15-1.68 4.05-1.68 6.91-4.83 2.85-3.14 4.37-7.68 1.51-4.53 1.51-10.24m32.11 4.41h22.37q0-2.3-.65-4.34t-1.94-3.58q-1.3-1.53-3.29-2.42t-4.63-.89q-5.14 0-8.09 2.93t-3.77 8.3m30.24 7.15h-30.48q.29 3.8 1.34 6.56 1.06 2.76 2.79 4.56t4.1 2.68q2.38.89 5.26.89t4.97-.67q2.08-.67 3.64-1.49 1.56-.81 2.74-1.49 1.18-.67 2.28-.67 1.49 0 2.21 1.11l3.41 4.32q-1.97 2.3-4.42 3.86t-5.11 2.5q-2.67.93-5.43 1.32-2.76.38-5.35.38-5.13 0-9.55-1.7-4.42-1.71-7.68-5.04-3.26-3.34-5.14-8.26-1.87-4.92-1.87-11.4 0-5.04 1.63-9.48 1.64-4.44 4.68-7.73 3.05-3.29 7.44-5.21 4.4-1.92 9.92-1.92 4.65 0 8.59 1.49 3.93 1.49 6.77 4.35 2.83 2.85 4.44 7 1.6 4.16 1.6 9.48 0 2.69-.57 3.63-.58.93-2.21.93m44.4-20.78-2.69 4.27q-.48.77-1.01 1.08-.52.31-1.34.31-.86 0-1.85-.48-.98-.48-2.28-1.08-1.29-.6-2.95-1.08t-3.91-.48q-3.51 0-5.5 1.49t-1.99 3.89q0 1.58 1.03 2.66t2.74 1.9q1.7.82 3.86 1.46 2.16.65 4.39 1.42 2.24.77 4.4 1.75 2.16.99 3.86 2.5t2.74 3.62q1.03 2.11 1.03 5.09 0 3.55-1.27 6.55-1.28 3-3.77 5.19-2.5 2.18-6.17 3.4-3.67 1.23-8.47 1.23-2.55 0-4.97-.46-2.42-.45-4.66-1.27-2.23-.82-4.12-1.92-1.9-1.1-3.34-2.4l2.74-4.51q.52-.82 1.24-1.25t1.83-.43q1.1 0 2.09.62.98.63 2.28 1.35 1.29.72 3.04 1.34 1.76.62 4.44.62 2.12 0 3.63-.5t2.49-1.32q.99-.82 1.44-1.9.46-1.08.46-2.23 0-1.73-1.03-2.83t-2.74-1.92q-1.7-.82-3.89-1.46-2.18-.65-4.46-1.42t-4.46-1.8q-2.19-1.03-3.89-2.62-1.71-1.58-2.74-3.88-1.03-2.31-1.03-5.57 0-3.03 1.2-5.76 1.2-2.74 3.53-4.78t5.81-3.26q3.48-1.23 8.04-1.23 5.08 0 9.26 1.68t6.96 4.42m9.46-27.41h11.85v40.85h2.21q1.2 0 1.9-.31.69-.31 1.41-1.27l12.24-15.12q.77-1.01 1.71-1.54.93-.53 2.42-.53h10.85l-15.31 18.29q-1.64 2.16-3.56 3.31 1.01.72 1.8 1.68.8.96 1.52 2.07l16.41 23.9h-10.7q-1.39 0-2.4-.46-1.01-.45-1.68-1.65l-12.58-18.67q-.67-1.11-1.39-1.44-.72-.34-2.16-.34h-2.69v22.56h-11.85zm67.72 72.1q-6.43 0-9.86-3.63-3.43-3.62-3.43-10v-27.51h-5.04q-.96 0-1.63-.62-.68-.63-.68-1.87v-4.71l7.92-1.29 2.5-13.44q.24-.96.91-1.49t1.73-.53h6.14v15.5H368v8.45h-13.16v26.69q0 2.3 1.13 3.6t3.1 1.3q1.1 0 1.85-.27.74-.26 1.29-.55t.99-.55q.43-.27.86-.27.53 0 .86.27.34.26.72.79l3.56 5.76q-2.6 2.16-5.96 3.26-3.36 1.11-6.96 1.11m41.09-50.79q5.47 0 9.96 1.78t7.68 5.04 4.92 7.97q1.73 4.7 1.73 10.51 0 5.86-1.73 10.56t-4.92 8.02q-3.19 3.31-7.68 5.08-4.49 1.78-9.96 1.78-5.52 0-10.03-1.78-4.51-1.77-7.7-5.08-3.2-3.32-4.95-8.02t-1.75-10.56q0-5.81 1.75-10.51 1.75-4.71 4.95-7.97 3.19-3.26 7.7-5.04t10.03-1.78m0 41.62q6.15 0 9.1-4.13t2.95-12.09q0-7.97-2.95-12.15-2.95-4.17-9.1-4.17-6.24 0-9.24 4.2t-3 12.12 3 12.07 9.24 4.15m45.22-26.45v22.08q2.01 2.45 4.39 3.46t5.16 1.01q2.69 0 4.85-1.01t3.67-3.07q1.51-2.07 2.33-5.21.81-3.15.81-7.42 0-4.32-.69-7.32-.7-3-1.99-4.87-1.3-1.87-3.15-2.74-1.85-.86-4.2-.86-3.69 0-6.29 1.56-2.59 1.56-4.89 4.39m-1.59-12.24.96 4.56q3.03-3.41 6.87-5.52t9.02-2.11q4.03 0 7.37 1.68t5.76 4.87 3.74 7.87 1.32 10.73q0 5.52-1.48 10.23-1.49 4.7-4.25 8.16-2.76 3.45-6.67 5.4-3.92 1.94-8.76 1.94-4.13 0-7.06-1.27t-5.23-3.53v20.16h-11.86v-65.33h7.25q2.3 0 3.02 2.16"/></svg>