<svg xmlns="http://www.w3.org/2000/svg" width="400" height="200" viewBox="0 0 400 200"><rect width="100%" height="100%" fill="#60a5fa"/><path fill="#ffffff" d="M136.615 72.645h7.81v55.67h-9.12v-35.96q0-2.16.23-4.66l-16.83 31.61q-1.19 2.27-3.65 2.27h-1.47q-2.46 0-3.65-2.27l-17.02-31.72q.11 1.27.19 2.5t.08 2.27v35.96h-9.13v-55.67h7.82q.69 0 1.19.04t.91.19q.4.15.73.5t.63.92l16.67 30.92q.66 1.23 1.22 2.54t1.09 2.7q.54-1.43 1.12-2.76t1.23-2.56l16.44-30.84q.31-.57.66-.92.34-.35.75-.5.4-.15.9-.19t1.2-.04m36.19 15.55q4.39 0 7.99 1.43 3.59 1.42 6.16 4.04 2.56 2.62 3.94 6.39 1.39 3.77 1.39 8.43 0 4.7-1.39 8.47-1.38 3.78-3.94 6.43-2.57 2.66-6.16 4.08-3.6 1.43-7.99 1.43-4.43 0-8.05-1.43-3.62-1.42-6.18-4.08-2.56-2.65-3.96-6.43-1.41-3.77-1.41-8.47 0-4.66 1.41-8.43 1.4-3.77 3.96-6.39t6.18-4.04q3.62-1.43 8.05-1.43m0 33.38q4.92 0 7.29-3.31t2.37-9.7-2.37-9.74-7.29-3.35q-5.01 0-7.41 3.37-2.41 3.37-2.41 9.72t2.41 9.68q2.4 3.33 7.41 3.33m36.26-21.21v17.71q1.62 1.96 3.53 2.77 1.9.81 4.02.81 2.19 0 3.95-.79 1.75-.79 2.98-2.46 1.23-1.68 1.89-4.28.65-2.6.65-6.22 0-6.5-2.16-9.41-2.15-2.91-6.19-2.91-2.74 0-4.78 1.26-2.04 1.25-3.89 3.52m0-29.26v22.56q2.39-2.5 5.3-3.98 2.9-1.49 6.64-1.49 3.42 0 6.18 1.35 2.75 1.35 4.69 3.87 1.95 2.52 2.99 6.1t1.04 8.05q0 4.81-1.2 8.74-1.19 3.93-3.4 6.72-2.22 2.79-5.34 4.33-3.11 1.54-6.93 1.54-1.84 0-3.34-.37-1.51-.36-2.78-1.02-1.27-.65-2.33-1.6-1.05-.94-2.02-2.09l-.42 2.65q-.23 1-.79 1.43-.56.42-1.52.42h-6.28v-57.21zm34.5 17.71h9.55v39.5h-9.55zm10.86-11.51q0 1.23-.5 2.31t-1.33 1.88q-.83.81-1.95 1.29-1.11.48-2.38.48-1.24 0-2.33-.48-1.1-.48-1.91-1.29-.81-.8-1.29-1.88t-.48-2.31q0-1.27.48-2.39t1.29-1.92q.81-.81 1.91-1.29 1.09-.49 2.33-.49 1.27 0 2.38.49 1.12.48 1.95 1.29.83.8 1.33 1.92t.5 2.39m8.5-6.2h9.51v57.21h-9.51zm26.53 32.92h17.94q0-1.85-.52-3.49-.52-1.63-1.56-2.87-1.04-1.23-2.63-1.94-1.6-.71-3.72-.71-4.12 0-6.49 2.35-2.36 2.34-3.02 6.66m24.26 5.73h-24.45q.23 3.04 1.08 5.26.84 2.21 2.23 3.66 1.39 1.44 3.29 2.15 1.91.71 4.22.71t3.98-.53q1.68-.54 2.93-1.2 1.25-.65 2.19-1.19.95-.54 1.83-.54 1.19 0 1.77.88l2.74 3.47q-1.58 1.85-3.55 3.1-1.96 1.25-4.1 2-2.13.75-4.35 1.06-2.21.31-4.29.31-4.12 0-7.66-1.37t-6.16-4.04q-2.62-2.68-4.12-6.62-1.5-3.95-1.5-9.15 0-4.04 1.31-7.6t3.75-6.2q2.45-2.64 5.97-4.18t7.95-1.54q3.73 0 6.89 1.2 3.16 1.19 5.43 3.48t3.56 5.62 1.29 7.61q0 2.15-.46 2.9t-1.77.75"/></svg>