<svg xmlns="http://www.w3.org/2000/svg" width="300" height="200" viewBox="0 0 300 200"><rect width="100%" height="100%" fill="#475569"/><path fill="#94A3B8" d="M102.25 79.4h5.89v41.93h-6.87V94.24q0-1.62.17-3.51l-12.67 23.81q-.9 1.71-2.76 1.71h-1.1q-1.86 0-2.75-1.71L69.34 90.65q.08.95.14 1.88t.06 1.71v27.09h-6.87V79.4h5.88q.53 0 .9.02.38.03.68.15.31.12.56.38.24.26.47.69l12.56 23.29q.49.93.91 1.91.43.99.83 2.03.41-1.07.84-2.07.44-1 .93-1.93l12.38-23.23q.24-.43.5-.69t.56-.38q.31-.12.68-.15.38-.02.9-.02m27.26 11.71q3.31 0 6.02 1.07 2.71 1.08 4.64 3.05t2.97 4.81q1.05 2.85 1.05 6.35 0 3.54-1.05 6.39-1.04 2.84-2.97 4.84t-4.64 3.07-6.02 1.07q-3.33 0-6.06-1.07-2.72-1.07-4.65-3.07t-2.99-4.84q-1.06-2.85-1.06-6.39 0-3.5 1.06-6.35 1.06-2.84 2.99-4.81t4.65-3.05q2.73-1.07 6.06-1.07m0 25.14q3.71 0 5.5-2.49 1.78-2.49 1.78-7.31 0-4.81-1.78-7.33-1.79-2.53-5.5-2.53-3.77 0-5.58 2.54t-1.81 7.32q0 4.79 1.81 7.3 1.81 2.5 5.58 2.5m27.32-15.97v13.34q1.22 1.47 2.65 2.08 1.44.61 3.03.61 1.66 0 2.98-.59 1.32-.6 2.24-1.86.93-1.26 1.43-3.22.49-1.95.49-4.68 0-4.9-1.63-7.09-1.62-2.19-4.66-2.19-2.06 0-3.6.94t-2.93 2.66m0-22.04v16.99q1.8-1.89 3.99-3 2.19-1.12 5-1.12 2.58 0 4.66 1.02 2.07 1.01 3.53 2.91 1.47 1.9 2.25 4.6.78 2.69.78 6.06 0 3.62-.9 6.58-.89 2.96-2.56 5.06t-4.02 3.26-5.22 1.16q-1.39 0-2.52-.27-1.13-.28-2.09-.77t-1.75-1.2q-.8-.71-1.53-1.58l-.32 2q-.17.75-.59 1.07t-1.15.32h-4.72V78.24zm25.98 13.34h7.2v29.75h-7.2zm8.18-8.68q0 .93-.37 1.74-.38.82-1 1.43-.63.6-1.47.97-.84.36-1.8.36-.93 0-1.75-.36-.83-.37-1.44-.97-.61-.61-.97-1.43-.36-.81-.36-1.74 0-.95.36-1.79t.97-1.45 1.44-.97q.82-.37 1.75-.37.96 0 1.8.37.84.36 1.47.97.62.61 1 1.45.37.84.37 1.79m6.41-4.66h7.16v43.09h-7.16zm19.98 24.79h13.52q0-1.39-.4-2.62-.39-1.24-1.17-2.16-.78-.93-1.99-1.47-1.2-.54-2.79-.54-3.11 0-4.89 1.77t-2.28 5.02m18.27 4.32h-18.41q.17 2.29.81 3.96t1.68 2.76q1.05 1.08 2.48 1.62 1.44.54 3.18.54t3-.41 2.2-.9 1.65-.9q.72-.4 1.38-.4.9 0 1.34.66l2.06 2.61q-1.19 1.39-2.67 2.34-1.48.94-3.09 1.51-1.61.56-3.28.79t-3.23.23q-3.1 0-5.77-1.02-2.67-1.03-4.64-3.05t-3.11-4.99q-1.13-2.97-1.13-6.89 0-3.04.99-5.72.99-2.69 2.83-4.67 1.84-1.99 4.49-3.15 2.66-1.16 5.99-1.16 2.81 0 5.19.9t4.09 2.63q1.71 1.72 2.68 4.23t.97 5.73q0 1.62-.34 2.19-.35.56-1.34.56"/></svg>